# File created by Blade
# Date/Time:  Mon Sep 22 15:39:46 2014
# Frame Rate: 120.000 fps
#------------------------------------------------------
:FULLY-SPECIFIED
:DEGREES
3344
root 0.874407 37.050478 2.907513 1.927603 -18.617346 0.194513
RightUpLeg 5.556490 5.769366 -0.733322
RightLeg -5.789070 -0.000000 0.000000
RightFoot -10.554127 -11.063585 14.987665
RightToeBase 15.159625 -0.000000 -0.000000
LeftUpLeg 8.750949 13.959264 4.583195
LeftLeg -3.152252 -0.000000 0.000000
LeftFoot -11.571133 16.604632 -20.928489
LeftToeBase 7.629865 -0.000000 -0.000000
Spine 3.651274 -25.542587 -6.189976
RightShoulder -7.304142 -5.061747 -28.362253
RightArm -195.589231 99.640614 -153.429627
RightForeArm 90.396158 -0.000000 89.772677
RightHand 19.141561 0.000000 -25.653727
RightHandThumb1 -24.326973 -0.000000 -32.862282
LeftShoulder -16.891229 39.669421 -4.739065
LeftArm 27.935309 -1.570916 -69.607264
LeftForeArm 19.492987 0.000000 34.278320
LeftHand -16.974045 -0.000000 -8.513125
LeftHandThumb1 -26.253704 0.000000 33.147579
Head 0.378999 -42.486285 4.796385
3345
root 0.867279 37.050719 2.895975 1.916426 -18.704751 0.186358
RightUpLeg 5.539544 5.786814 -0.715745
RightLeg -5.776875 -0.000000 0.000000
RightFoot -10.529660 -11.015296 14.960021
RightToeBase 15.132439 -0.000000 -0.000000
LeftUpLeg 8.760751 14.000958 4.604770
LeftLeg -3.136783 -0.000000 0.000000
LeftFoot -11.588512 16.632073 -20.960088
LeftToeBase 7.656137 -0.000000 -0.000000
Spine 3.660973 -25.476962 -6.158947
RightShoulder -7.416719 -5.017329 -28.419718
RightArm -196.097617 99.487396 -153.673962
RightForeArm 90.443421 -0.000000 93.382854
RightHand 19.037852 0.000000 -24.260197
RightHandThumb1 -24.326973 -0.000000 -32.862282
LeftShoulder -16.939895 39.656749 -4.843666
LeftArm 27.917446 -1.593342 -69.637132
LeftForeArm 19.679416 -0.000000 34.366529
LeftHand -17.032459 -0.000000 -8.520722
LeftHandThumb1 -26.253704 0.000000 33.147579
Head 0.488269 -42.573041 4.662020
3346
root 0.860198 37.050253 2.884407 1.907412 -18.785418 0.181725
RightUpLeg 5.523741 5.810205 -0.699599
RightLeg -5.776134 -0.000000 0.000000
RightFoot -10.497487 -10.985577 14.920209
RightToeBase 15.158333 -0.000000 -0.000000
LeftUpLeg 8.768534 14.044792 4.622131
LeftLeg -3.128448 -0.000000 0.000000
LeftFoot -11.594089 16.658015 -20.969505
LeftToeBase 7.623744 -0.000000 -0.000000
Spine 3.662287 -25.433447 -6.132441
RightShoulder -7.501576 -5.045411 -28.439221
RightArm -196.389886 99.266021 -153.732032
RightForeArm 90.013369 -0.000000 96.979316
RightHand 18.905706 0.000000 -22.499495
RightHandThumb1 -24.326973 -0.000000 -32.862282
LeftShoulder -17.003098 39.668922 -4.962701
LeftArm 27.915216 -1.652432 -69.679297
LeftForeArm 19.799809 0.000000 34.448721
LeftHand -16.988611 -0.000000 -8.554491
LeftHandThumb1 -26.253704 0.000000 33.147579
Head 0.608186 -42.668494 4.497188
3347
root 0.854461 37.049558 2.872447 1.906025 -18.873823 0.180441
RightUpLeg 5.478149 5.787211 -0.690352
RightLeg -5.736042 -0.000000 0.000000
RightFoot -10.493931 -10.911959 14.896816
RightToeBase 15.108250 -0.000000 -0.000000
LeftUpLeg 8.776820 14.070897 4.629319
LeftLeg -3.141163 -0.000000 0.000000
LeftFoot -11.603726 16.706224 -20.995241
LeftToeBase 7.636290 -0.000000 -0.000000
Spine 3.670505 -25.378256 -6.113046
RightShoulder -7.528158 -5.512659 -28.343762
RightArm -196.215803 98.586911 -153.418249
RightForeArm 89.297523 -0.000000 100.487323
RightHand 18.858344 0.000000 -20.471635
RightHandThumb1 -24.326973 -0.000000 -32.862282
LeftShoulder -17.067478 39.678910 -5.095702
LeftArm 27.897218 -1.716119 -69.707814
LeftForeArm 19.852973 -0.000000 34.598505
LeftHand -17.099615 -0.000000 -8.587406
LeftHandThumb1 -26.253704 0.000000 33.147579
Head 0.643850 -42.729180 4.421275
3348
root 0.848636 37.048417 2.857689 1.909546 -18.975879 0.172263
RightUpLeg 5.448989 5.828477 -0.678678
RightLeg -5.747700 -0.000000 0.000000
RightFoot -10.476487 -10.853461 14.903586
RightToeBase 15.199554 -0.000000 -0.000000
LeftUpLeg 8.771218 14.140735 4.646558
LeftLeg -3.130862 -0.000000 0.000000
LeftFoot -11.633983 16.722543 -21.036472
LeftToeBase 7.696637 -0.000000 -0.000000
Spine 3.687022 -25.305484 -6.103012
RightShoulder -7.534056 -5.633533 -28.303948
RightArm -197.052271 98.215812 -154.069149
RightForeArm 88.321634 0.000000 103.895816
RightHand 19.130364 -0.000000 -18.358821
RightHandThumb1 -24.326973 -0.000000 -32.862282
LeftShoulder -17.129537 39.714825 -5.211723
LeftArm 27.908441 -1.789560 -69.776330
LeftForeArm 19.951520 -0.000000 34.756235
LeftHand -17.133591 0.000000 -8.598843
LeftHandThumb1 -26.253704 0.000000 33.147579
Head 0.671327 -42.812390 4.379418
3349
root 0.844528 37.046911 2.842043 1.915853 -19.075616 0.166473
RightUpLeg 5.384674 5.737391 -0.680625
RightLeg -5.683761 -0.000000 0.000000
RightFoot -10.471435 -10.636165 14.902175
RightToeBase 15.187974 -0.000000 -0.000000
LeftUpLeg 8.762252 14.205893 4.657953
LeftLeg -3.128026 -0.000000 0.000000
LeftFoot -11.639323 16.751581 -21.019888
LeftToeBase 7.670156 -0.000000 -0.000000
Spine 3.721468 -25.238582 -6.110840
RightShoulder -7.533987 -5.709900 -28.252740
RightArm -198.049033 97.868470 -154.904196
RightForeArm 87.288324 -0.000000 107.190152
RightHand 19.711816 0.000000 -16.360748
RightHandThumb1 -24.326973 -0.000000 -32.862282
LeftShoulder -17.201331 39.712879 -5.316937
LeftArm 27.899996 -1.847076 -69.846110
LeftForeArm 20.087765 0.000000 34.909953
LeftHand -17.172827 -0.000000 -8.443151
LeftHandThumb1 -26.253704 0.000000 33.147579
Head 0.612786 -42.878946 4.432704
3350
root 0.838879 37.045224 2.826052 1.930081 -19.171967 0.148472
RightUpLeg 5.344913 5.746406 -0.658726
RightLeg -5.686995 -0.000000 0.000000
RightFoot -10.440012 -10.574188 14.844317
RightToeBase 15.250960 -0.000000 -0.000000
LeftUpLeg 8.747239 14.253133 4.677591
LeftLeg -3.114974 -0.000000 0.000000
LeftFoot -11.613347 16.792211 -20.925169
LeftToeBase 7.495076 -0.000000 -0.000000
Spine 3.750940 -25.165863 -6.115952
RightShoulder -7.465163 -5.775668 -28.186288
RightArm -199.883934 97.503744 -156.588516
RightForeArm 86.421827 -0.000000 110.501038
RightHand 20.567105 0.000000 -15.020095
RightHandThumb1 -24.326973 -0.000000 -32.862282
LeftShoulder -17.248527 39.722300 -5.408247
LeftArm 27.861441 -1.897082 -69.901508
LeftForeArm 20.060865 -0.000000 35.118904
LeftHand -17.164842 0.000000 -8.404760
LeftHandThumb1 -26.253704 0.000000 33.147579
Head 0.646457 -42.958029 4.466958
3351
root 0.830462 37.043549 2.810644 1.942656 -19.258699 0.111875
RightUpLeg 5.330724 5.775793 -0.615136
RightLeg -5.717980 -0.000000 0.000000
RightFoot -10.399733 -10.512991 14.872831
RightToeBase 15.270992 -0.000000 -0.000000
LeftUpLeg 8.744319 14.310285 4.728612
LeftLeg -3.119141 -0.000000 0.000000
LeftFoot -11.684067 16.810966 -21.023170
LeftToeBase 7.603463 -0.000000 -0.000000
Spine 3.799943 -25.098216 -6.113810
RightShoulder -7.435607 -5.918914 -28.096765
RightArm -201.210703 97.156094 -157.771623
RightForeArm 85.308999 -0.000000 113.846528
RightHand 21.688102 -0.000000 -14.846430
RightHandThumb1 -24.326973 -0.000000 -32.862282
LeftShoulder -17.302596 39.701564 -5.489405
LeftArm 27.825212 -1.927121 -69.956554
LeftForeArm 20.072342 -0.000000 35.291960
LeftHand -17.227477 -0.000000 -8.382379
LeftHandThumb1 -26.253704 0.000000 33.147579
Head 0.633230 -43.070243 4.543905
3352
root 0.824632 37.042076 2.792813 1.959338 -19.360532 0.091246
RightUpLeg 5.291148 5.807932 -0.592570
RightLeg -5.732206 -0.000000 0.000000
RightFoot -10.353896 -10.444832 14.860034
RightToeBase 15.262349 -0.000000 -0.000000
LeftUpLeg 8.724280 14.373971 4.758045
LeftLeg -3.103889 -0.000000 0.000000
LeftFoot -11.708146 16.821190 -21.040242
LeftToeBase 7.631081 -0.000000 -0.000000
Spine 3.855769 -25.009605 -6.133466
RightShoulder -7.361686 -5.969263 -28.025524
RightArm -203.807622 96.804652 -160.162716
RightForeArm 84.492564 -0.000000 117.300285
RightHand 22.487259 -0.000000 -15.615566
RightHandThumb1 -24.326973 -0.000000 -32.862282
LeftShoulder -17.391687 39.659982 -5.601867
LeftArm 27.838474 -1.937538 -69.972122
LeftForeArm 20.033323 -0.000000 35.407231
LeftHand -17.204843 -0.000000 -8.278278
LeftHandThumb1 -26.253704 0.000000 33.147579
Head 0.518887 -43.137272 4.678342
3353
root 0.820304 37.040478 2.775546 1.985974 -19.466513 0.065930
RightUpLeg 5.245554 5.830232 -0.566841
RightLeg -5.755181 -0.000000 0.000000
RightFoot -10.301702 -10.399456 14.830098
RightToeBase 15.284765 -0.000000 -0.000000
LeftUpLeg 8.708724 14.429576 4.784009
LeftLeg -3.115546 -0.000000 0.000000
LeftFoot -11.737370 16.858402 -21.064943
LeftToeBase 7.644252 -0.000000 -0.000000
Spine 3.896141 -24.926523 -6.143274
RightShoulder -7.315910 -6.018956 -27.972330
RightArm -206.686073 96.404603 -162.798127
RightForeArm 83.838465 0.000000 120.702405
RightHand 22.930247 -0.000000 -17.065885
RightHandThumb1 -24.326973 -0.000000 -32.862282
LeftShoulder -17.495356 39.656880 -5.723183
LeftArm 27.863175 -1.932383 -69.992103
LeftForeArm 19.956463 0.000000 35.550897
LeftHand -17.172930 -0.000000 -8.166448
LeftHandThumb1 -26.253704 0.000000 33.147579
Head 0.455300 -43.202015 4.771038
